<svg width="48" height="48" viewBox="0 0 48 48" fill="none" xmlns="http://www.w3.org/2000/svg">
<path d="M17.0422 7.31745C15.2547 7.40178 14.034 7.68705 12.9668 8.10638C11.8624 8.5368 10.9263 9.11438 9.99485 10.0491C9.06345 10.9839 8.4899 11.9207 8.0625 13.0268C7.64888 14.0963 7.36865 15.318 7.28969 17.1065C7.21073 18.895 7.19326 19.4699 7.20199 24.0322C7.21073 28.5944 7.23089 29.1663 7.31758 30.9585C7.40292 32.7457 7.68718 33.966 8.10652 35.0335C8.53761 36.1379 9.11453 37.0737 10.0496 38.0054C10.9847 38.9372 11.9208 39.5094 13.0296 39.9375C14.0981 40.3504 15.3202 40.632 17.1084 40.7103C18.8966 40.7885 19.4722 40.8067 24.0331 40.7979C28.594 40.7892 29.1682 40.7691 30.9601 40.684C32.752 40.599 33.966 40.3128 35.0338 39.8955C36.1383 39.4634 37.0747 38.8874 38.0058 37.952C38.9368 37.0166 39.5101 36.0791 39.9371 34.9724C40.3511 33.9039 40.6323 32.6818 40.7099 30.895C40.7882 29.1017 40.8067 28.5292 40.798 23.9676C40.7892 19.4061 40.7687 18.8342 40.6837 17.0427C40.5987 15.2511 40.3141 14.0344 39.8951 12.9663C39.4634 11.8619 38.8871 10.9268 37.9524 9.99437C37.0176 9.06196 36.0795 8.48908 34.973 8.06303C33.9038 7.64942 32.6825 7.36751 30.8943 7.29023C29.1061 7.21295 28.5305 7.19313 23.9679 7.20186C19.4053 7.2106 18.8341 7.23009 17.0422 7.31745ZM17.2384 37.6879C15.6004 37.6167 14.711 37.3445 14.1183 37.1167C13.3334 36.8143 12.7743 36.4487 12.1836 35.8638C11.5929 35.2788 11.23 34.7177 10.9236 33.9345C10.6934 33.3417 10.4162 32.4534 10.3396 30.8154C10.2563 29.045 10.2388 28.5134 10.229 24.0281C10.2193 19.5428 10.2364 19.012 10.3141 17.2409C10.3839 15.6042 10.6578 14.7138 10.8853 14.1215C11.1877 13.3356 11.5519 12.7775 12.1382 12.1871C12.7245 11.5968 13.284 11.2332 14.0679 10.9268C14.6599 10.6956 15.5483 10.4208 17.1857 10.3428C18.9574 10.2588 19.4883 10.242 23.9729 10.2323C28.4576 10.2225 28.9898 10.2393 30.7622 10.3173C32.3989 10.3885 33.2896 10.6597 33.8813 10.8885C34.6666 11.1909 35.2254 11.5541 35.8157 12.1414C36.4061 12.7287 36.77 13.2862 37.0764 14.0717C37.3079 14.6621 37.5828 15.5501 37.66 17.1885C37.7444 18.9602 37.7635 19.4914 37.7716 23.9757C37.7796 28.46 37.7639 28.9925 37.6862 30.7629C37.6147 32.4009 37.3432 33.2907 37.115 33.8841C36.8126 34.6686 36.4481 35.2281 35.8614 35.8181C35.2747 36.4081 34.716 36.7716 33.9317 37.0781C33.3404 37.3089 32.451 37.5844 30.815 37.6624C29.0432 37.7457 28.5123 37.7632 24.026 37.7729C19.5397 37.7827 19.0105 37.7645 17.2388 37.6879M30.9343 15.0209C30.9349 15.4197 31.0538 15.8093 31.2759 16.1405C31.498 16.4717 31.8134 16.7295 32.182 16.8815C32.5507 17.0334 32.9562 17.0726 33.3471 16.9941C33.7381 16.9156 34.097 16.723 34.3784 16.4405C34.6599 16.158 34.8512 15.7984 34.9283 15.4072C35.0053 15.0159 34.9647 14.6106 34.8113 14.2425C34.658 13.8744 34.399 13.56 34.067 13.3391C33.735 13.1183 33.345 13.0008 32.9462 13.0016C32.4117 13.0026 31.8994 13.216 31.5221 13.5947C31.1448 13.9734 30.9334 14.4864 30.9343 15.0209ZM15.3739 24.0167C15.3833 28.7812 19.2528 32.6348 24.0163 32.6257C28.7798 32.6167 32.6361 28.7476 32.627 23.9831C32.618 19.2186 28.7475 15.364 23.9833 15.3734C19.2192 15.3828 15.3649 19.2529 15.3739 24.0167ZM18.4 24.0107C18.3978 22.9031 18.7241 21.8197 19.3376 20.8975C19.9512 19.9754 20.8244 19.2559 21.8468 18.83C22.8693 18.4041 23.9951 18.291 25.0818 18.5049C26.1686 18.7188 27.1675 19.2502 27.9522 20.0319C28.737 20.8135 29.2723 21.8103 29.4905 22.8962C29.7088 23.9821 29.6001 25.1083 29.1783 26.1324C28.7564 27.1565 28.0404 28.0326 27.1206 28.6497C26.2009 29.2669 25.1188 29.5975 24.0112 29.5997C23.2758 29.6012 22.5472 29.4579 21.8672 29.1778C21.1872 28.8978 20.5689 28.4865 20.0479 27.9675C19.5268 27.4485 19.1131 26.8319 18.8303 26.153C18.5476 25.4741 18.4013 24.7461 18.4 24.0107Z" fill="white"/>
</svg>
